<svg width="317" height="317" viewBox="0 0 317 317" fill="none" xmlns="http://www.w3.org/2000/svg">
<path d="M61.9855 192V124.622H80.2775V177.261H107.518V192H61.9855ZM114.912 124.622H137.679L153.339 162.785H154.128L169.788 124.622H192.555V192H174.657V153.047H174.131L159.129 191.474H148.338L133.336 152.784H132.809V192H114.912V124.622ZM237.544 145.678C237.369 143.484 236.546 141.774 235.077 140.545C233.629 139.317 231.425 138.703 228.464 138.703C226.578 138.703 225.032 138.933 223.825 139.394C222.641 139.833 221.764 140.436 221.193 141.203C220.623 141.971 220.327 142.848 220.305 143.835C220.261 144.647 220.404 145.382 220.733 146.04C221.084 146.676 221.632 147.257 222.378 147.783C223.124 148.288 224.078 148.748 225.24 149.165C226.403 149.582 227.784 149.955 229.385 150.284L234.912 151.468C238.641 152.258 241.832 153.299 244.486 154.593C247.14 155.888 249.311 157.412 251 159.166C252.689 160.899 253.928 162.851 254.718 165.023C255.529 167.194 255.946 169.563 255.968 172.129C255.946 176.559 254.838 180.31 252.645 183.38C250.452 186.451 247.316 188.787 243.236 190.388C239.178 191.989 234.298 192.79 228.596 192.79C222.74 192.79 217.629 191.923 213.265 190.191C208.922 188.458 205.544 185.793 203.132 182.196C200.741 178.577 199.535 173.949 199.513 168.313H216.884C216.993 170.374 217.509 172.107 218.43 173.511C219.351 174.914 220.645 175.978 222.312 176.702C224.001 177.426 226.008 177.788 228.333 177.788C230.285 177.788 231.919 177.546 233.235 177.064C234.551 176.581 235.549 175.912 236.228 175.057C236.908 174.201 237.259 173.225 237.281 172.129C237.259 171.098 236.919 170.199 236.261 169.431C235.625 168.641 234.573 167.94 233.103 167.326C231.634 166.689 229.649 166.097 227.148 165.549L220.437 164.101C214.471 162.807 209.766 160.647 206.323 157.62C202.901 154.572 201.202 150.415 201.224 145.151C201.202 140.874 202.342 137.135 204.645 133.933C206.97 130.709 210.183 128.197 214.285 126.399C218.408 124.6 223.135 123.701 228.464 123.701C233.904 123.701 238.608 124.611 242.578 126.432C246.548 128.252 249.608 130.818 251.757 134.13C253.928 137.42 255.025 141.269 255.047 145.678H237.544Z" fill="white"/>
<path d="M67.1909 197H258.965L251.553 210.588L57 216.764L67.1909 197Z" fill="url(#paint0_linear_19_75)"/>
<defs>
<linearGradient id="paint0_linear_19_75" x1="57" y1="206.882" x2="258.965" y2="206.882" gradientUnits="userSpaceOnUse">
<stop stop-color="#78FFBD"/>
<stop offset="1" stop-color="#00E676"/>
</linearGradient>
</defs>
</svg>
